<?xml version="1.0" encoding="utf-8"?>
<!-- Generator: Adobe Illustrator 26.0.3, SVG Export Plug-In . SVG Version: 6.00 Build 0)  -->
<svg version="1.1" id="Layer_1" xmlns="http://www.w3.org/2000/svg" xmlns:xlink="http://www.w3.org/1999/xlink" x="0px" y="0px"
	 viewBox="0 0 369.6 45.2" style="enable-background:new 0 0 369.6 45.2;" xml:space="preserve">
<style type="text/css">
	.st0{fill:#E84C57;}
</style>
<g>
	<path class="st0" d="M175.7,37.26h-29.46V7.8h29.46V37.26z"/>
	<path d="M4.85,7.8h29.46v5.89H10.74v5.89h17.67v5.89H10.74v11.78H4.85V7.8z"/>
	<path d="M69.65,25.47H46.09v5.89h23.57v5.89H40.2V7.8h29.46V25.47z M63.76,19.58v-5.89H46.09v5.89H63.76z"/>
	<path d="M105,7.8v29.46h-5.89V13.69h-5.89v23.57h-5.89V13.69h-5.89v23.57h-5.89V7.8H105z"/>
	<path d="M110.89,19.58h23.57v-5.89h-23.57V7.8h29.46v29.46h-29.46V19.58z M116.79,25.47v5.89h17.67v-5.89H116.79z"/>
	<path d="M181.59,37.26V7.8h23.57v11.78h5.89v17.67H181.59z M199.27,13.69h-11.78v5.89h11.78V13.69z M205.16,31.37v-5.89h-17.67
		v5.89H205.16z"/>
	<path d="M216.94,19.58h23.57v-5.89h-23.57V7.8h29.46v29.46h-29.46V19.58z M222.83,25.47v5.89h17.67v-5.89H222.83z"/>
	<path d="M281.75,7.94V37.4h-5.89V13.83h-17.67V37.4h-5.89V7.94H281.75z"/>
	<path d="M317.1,7.8v5.89h-11.78v23.57h-5.89V13.69h-11.78V7.8H317.1z"/>
	<g>
		<path class="st0" d="M319.73,28.09v-2.71h4.73v11.6h-2.73v-8.89H319.73z"/>
		<path class="st0" d="M338.2,31.19c0,3.32-2.7,6-6,6c-3.32,0-6-2.68-6-6c0-3.3,2.68-6,6-6C335.51,25.19,338.2,27.88,338.2,31.19z
			 M335.49,31.19c0-1.81-1.48-3.29-3.29-3.29s-3.29,1.48-3.29,3.29c0,1.83,1.48,3.29,3.29,3.29S335.49,33.02,335.49,31.19z"/>
		<path class="st0" d="M342.03,33.83v3.15h-2.75v-3.15H342.03z"/>
		<path class="st0" d="M344.47,25.38l2.45,4.12l2.45-4.12h3.17l-4.26,7.15v4.45h-2.71v-4.45l-4.26-7.15H344.47z"/>
		<path class="st0" d="M356.33,36.98h-2.71v-11.6h2.71V36.98z"/>
		<path class="st0" d="M361.25,34.27h4.42v2.71h-7.15v-11.6h2.73V34.27z"/>
	</g>
</g>
</svg>
