<?xml version="1.0" encoding="utf-8"?>
<!-- Generator: Adobe Illustrator 23.0.6, SVG Export Plug-In . SVG Version: 6.00 Build 0)  -->
<svg version="1.1" id="Layer_1" xmlns="http://www.w3.org/2000/svg" xmlns:xlink="http://www.w3.org/1999/xlink" x="0px" y="0px"
	 width="183.3px" height="64px" viewBox="0 0 183.3 64" style="enable-background:new 0 0 183.3 64;" xml:space="preserve">
<style type="text/css">
	.st0{fill:#ED1C24;}
	.st1{fill:#2E2E2E;}
	.st2{fill-rule:evenodd;clip-rule:evenodd;fill:#2E2E2E;}
</style>
<path class="st0" d="M33.5,0c0,0-5.3,20.9-4.6,32.4c0.3,9.2,4.5,13.7,21.9,10.1L0,64L33.5,0"/>
<path class="st1" d="M40.1,22.8h5.3v10.3H52V22.8h5.6v11.5c0,0-0.2,2.4-2.9,2.5H42.3c0,0-2.2-0.1-2.2-2.4V22.8"/>
<polyline class="st1" points="59.8,22.8 64.7,22.8 70.6,29.7 70.6,22.8 75.8,22.8 75.8,36.7 70.2,36.7 65,31.1 65,36.7 59.8,36.7 
	59.8,22.8 "/>
<polyline class="st1" points="77.8,22.8 83.7,22.8 86.8,29.7 90,22.8 95.6,22.8 90,36.8 83.5,36.8 77.8,22.8 "/>
<polyline class="st1" points="96.8,22.8 113.1,22.8 113.1,26.4 102,26.4 102,28.1 106.9,28.1 106.9,31.5 102,31.5 102,33.2 
	113.1,33.2 113.1,36.8 96.8,36.8 96.8,22.8 "/>
<polyline class="st1" points="134.1,22.8 139.5,22.8 139.5,33.2 146.4,33.2 146.4,36.8 134.1,36.8 134.1,22.8 "/>
<polyline class="st1" points="148.2,22.8 164.5,22.8 164.5,26.4 153.4,26.4 153.4,28.1 158.3,28.1 158.3,31.5 153.4,31.5 
	153.4,33.2 164.5,33.2 164.5,36.8 148.2,36.8 148.2,22.8 "/>
<path class="st0" d="M43.7,19.9c0-1.1,0.9-1.9,1.9-1.9c1.1,0,1.9,0.9,1.9,1.9c0,1.1-0.9,1.9-1.9,1.9C44.6,21.8,43.7,21,43.7,19.9"/>
<path class="st0" d="M49.9,19.9c0-1.1,0.9-1.9,1.9-1.9c1.1,0,1.9,0.9,1.9,1.9c0,1.1-0.9,1.9-1.9,1.9C50.7,21.8,49.9,21,49.9,19.9"/>
<path class="st2" d="M115.5,22.8h13.7c0,0,2.5,0,2.6,2.6v3.8c0,0,0,0.3-0.2,0.5c-0.2,0.2-0.6,0.4-0.6,0.4l0.7,0.6
	c0,0,0.3,0.2,0.3,0.5v5.5h-5.4v-3.9c0,0,0.1-0.6-0.6-0.7h-5.3v4.6h-5.1V22.8 M120.6,26.3v2.4h5.6c0.4,0,0.3-0.5,0.3-0.5v-1.4
	c0-0.4-0.5-0.4-0.5-0.4H120.6z"/>
<path class="st2" d="M166.9,22.8h13.7c0,0,2.5,0,2.6,2.6v3.8c0,0,0,0.3-0.2,0.5c-0.2,0.2-0.6,0.4-0.6,0.4l0.7,0.6
	c0,0,0.3,0.2,0.3,0.5v5.5h-5.4v-3.9c0,0,0.1-0.6-0.6-0.7H172v4.6h-5.1V22.8 M172.1,26.3v2.4h5.6c0.4,0,0.3-0.5,0.3-0.5v-1.4
	c0-0.4-0.5-0.4-0.5-0.4H172.1z"/>
</svg>
